<?xml version="1.0" encoding="UTF-8" standalone="no"?>
<!DOCTYPE svg PUBLIC "-//W3C//DTD SVG 1.1//EN"
 "http://www.w3.org/Graphics/SVG/1.1/DTD/svg11.dtd">
<!-- Generated by graphviz version 14.1.4 (20260321.0153)
 -->
<!-- Title: hello_to_write Pages: 1 -->
<svg width="1154pt" height="601pt"
 viewBox="0.00 0.00 1154.00 601.00" xmlns="http://www.w3.org/2000/svg" xmlns:xlink="http://www.w3.org/1999/xlink">
<g id="graph0" class="graph" transform="scale(1 1) rotate(0) translate(21.6 579.73)">
<title>hello_to_write</title>
<polygon fill="#faf9f6" stroke="none" points="-21.6,21.6 -21.6,-579.73 1132.6,-579.73 1132.6,21.6 -21.6,21.6"/>
<g id="clust1" class="cluster">
<title>cluster_userspace</title>
<path fill="#faf9f6" stroke="#b5b5b5" stroke-dasharray="5,2" d="M20,-156.97C20,-156.97 1075,-156.97 1075,-156.97 1081,-156.97 1087,-162.97 1087,-168.97 1087,-168.97 1087,-538.13 1087,-538.13 1087,-544.13 1081,-550.13 1075,-550.13 1075,-550.13 20,-550.13 20,-550.13 14,-550.13 8,-544.13 8,-538.13 8,-538.13 8,-168.97 8,-168.97 8,-162.97 14,-156.97 20,-156.97"/>
<text xml:space="preserve" text-anchor="middle" x="43" y="-536.63" font-family="monospace" font-size="10.00" fill="#7a7a7a">userspace</text>
</g>
<g id="clust5" class="cluster">
<title>cluster_kernel</title>
<path fill="#ecebe6" stroke="#5f5e5a" stroke-width="1.2" d="M228,-8C228,-8 1091,-8 1091,-8 1097,-8 1103,-14 1103,-20 1103,-20 1103,-116.22 1103,-116.22 1103,-122.22 1097,-128.22 1091,-128.22 1091,-128.22 228,-128.22 228,-128.22 222,-128.22 216,-122.22 216,-116.22 216,-116.22 216,-20 216,-20 216,-14 222,-8 228,-8"/>
<text xml:space="preserve" text-anchor="middle" x="260" y="-114.72" font-family="monospace" font-size="10.00" fill="#5f5e5a">Linux kernel</text>
</g>
<!-- iostream -->
<g id="node1" class="node">
<title>iostream</title>
<path fill="#ddf3ea" stroke="#0f6e56" stroke-width="1.2" d="M438.4,-509.88C438.4,-509.88 37.6,-509.88 37.6,-509.88 31.6,-509.88 25.6,-503.88 25.6,-497.88 25.6,-497.88 25.6,-446.16 25.6,-446.16 25.6,-440.16 31.6,-434.16 37.6,-434.16 37.6,-434.16 438.4,-434.16 438.4,-434.16 444.4,-434.16 450.4,-440.16 450.4,-446.16 450.4,-446.16 450.4,-497.88 450.4,-497.88 450.4,-503.88 444.4,-509.88 438.4,-509.88"/>
<text xml:space="preserve" text-anchor="middle" x="238" y="-491.02" font-family="monospace" font-size="10.00" fill="#1a1a1a">C++ iostream &#160;&#160;(buffered via a streambuf)</text>
<text xml:space="preserve" text-anchor="middle" x="238" y="-476.77" font-family="monospace" font-size="10.00" fill="#1a1a1a">cout&lt;&lt; &#160;&#160;cerr &#160;&#160;clog &#160;&#160;print/println(ostream) &#160;&#160;.write &#160;&#160;.put</text>
<text xml:space="preserve" text-anchor="middle" x="238" y="-462.52" font-family="monospace" font-size="10.00" fill="#1a1a1a">sputn &#160;&#160;sputc &#160;&#160;format_to[_n] &#160;&#160;ostream_iterator &#160;&#160;osyncstream</text>
<text xml:space="preserve" text-anchor="middle" x="238" y="-448.27" font-family="monospace" font-size="10.00" fill="#1a1a1a">ofstream(path) e.g. /dev/stdout &#160;&#160;&#160;&#160;&#160;&#160;&#160;&#160;&#160;&#160;&#160;wide: wcout/wcerr/wclog</text>
</g>
<!-- stdio -->
<g id="node3" class="node">
<title>stdio</title>
<path fill="#ddf3ea" stroke="#0f6e56" stroke-width="1.2" d="M695.4,-375.41C695.4,-375.41 342.6,-375.41 342.6,-375.41 336.6,-375.41 330.6,-369.41 330.6,-363.41 330.6,-363.41 330.6,-311.69 330.6,-311.69 330.6,-305.69 336.6,-299.69 342.6,-299.69 342.6,-299.69 695.4,-299.69 695.4,-299.69 701.4,-299.69 707.4,-305.69 707.4,-311.69 707.4,-311.69 707.4,-363.41 707.4,-363.41 707.4,-369.41 701.4,-375.41 695.4,-375.41"/>
<text xml:space="preserve" text-anchor="middle" x="519" y="-356.55" font-family="monospace" font-size="10.00" fill="#1a1a1a">C stdio &#160;&#160;(buffered via FILE*)</text>
<text xml:space="preserve" text-anchor="middle" x="519" y="-342.3" font-family="monospace" font-size="10.00" fill="#1a1a1a">printf &#160;&#160;fprintf &#160;&#160;puts &#160;&#160;fputs &#160;&#160;print/println</text>
<text xml:space="preserve" text-anchor="middle" x="519" y="-328.05" font-family="monospace" font-size="10.00" fill="#1a1a1a">fwrite &#160;&#160;putchar &#160;&#160;putc &#160;&#160;fputc</text>
<text xml:space="preserve" text-anchor="middle" x="519" y="-313.8" font-family="monospace" font-size="10.00" fill="#1a1a1a">_unlocked family &#160;&#160;fopen(path) &#160;&#160;wide: wprintf, putwc, ...</text>
</g>
<!-- iostream&#45;&gt;stdio -->
<g id="edge1" class="edge">
<title>iostream&#45;&gt;stdio</title>
<path fill="none" stroke="#0f6e56" stroke-width="1.6" d="M302.31,-433.61C323.58,-421.79 347.55,-409.05 370,-398.41 383.33,-392.09 397.51,-385.83 411.63,-379.87"/>
<polygon fill="#0f6e56" stroke="#0f6e56" stroke-width="1.6" points="412.35,-382.6 418.65,-376.94 410.19,-377.44 412.35,-382.6"/>
<text xml:space="preserve" text-anchor="middle" x="464.5" y="-403.09" font-family="monospace" font-size="8.50" fill="#0f6e56"> &#160;default: via the C stdout buffer &#160;</text>
</g>
<!-- writef -->
<g id="node5" class="node">
<title>writef</title>
<path fill="#faeeda" stroke="#854f0b" stroke-width="2.4" d="M447.9,-240.94C447.9,-240.94 38.1,-240.94 38.1,-240.94 32.1,-240.94 26.1,-234.94 26.1,-228.94 26.1,-228.94 26.1,-186.97 26.1,-186.97 26.1,-180.97 32.1,-174.97 38.1,-174.97 38.1,-174.97 447.9,-174.97 447.9,-174.97 453.9,-174.97 459.9,-180.97 459.9,-186.97 459.9,-186.97 459.9,-228.94 459.9,-228.94 459.9,-234.94 453.9,-240.94 447.9,-240.94"/>
<text xml:space="preserve" text-anchor="middle" x="243" y="-221.13" font-family="monospace" font-size="11.00" fill="#1a1a1a">write() &#160;&#160;[libc wrapper]</text>
<text xml:space="preserve" text-anchor="middle" x="243" y="-205.38" font-family="monospace" font-size="11.00" fill="#1a1a1a">the one fd&#45;level call everything funnels through</text>
<text xml:space="preserve" text-anchor="middle" x="243" y="-189.63" font-family="monospace" font-size="11.00" fill="#1a1a1a">not the syscall itself &#45;&#45; it emits the &#39;syscall&#39; instruction</text>
</g>
<!-- iostream&#45;&gt;writef -->
<g id="edge2" class="edge">
<title>iostream&#45;&gt;writef</title>
<path fill="none" stroke="#0f6e56" stroke-width="0.9" stroke-dasharray="5,2" d="M167.1,-433.63C145.89,-418.59 125.19,-399.12 113.5,-375.41 98.62,-345.22 97.97,-329.54 113.5,-299.69 124.68,-278.2 143.54,-260.75 163.45,-247.1"/>
<polygon fill="#0f6e56" stroke="#0f6e56" stroke-width="0.9" points="164.84,-249.54 169.98,-242.81 161.76,-244.86 164.84,-249.54"/>
<text xml:space="preserve" text-anchor="middle" x="213.25" y="-342.23" font-family="monospace" font-size="8.50" fill="#3f8f78"> &#160;own buffer &#45;&gt; write()</text>
<text xml:space="preserve" text-anchor="middle" x="213.25" y="-329.48" font-family="monospace" font-size="8.50" fill="#3f8f78"> &#160;(ofstream / sync_with_stdio false) &#160;</text>
</g>
<!-- diag -->
<g id="node2" class="node">
<title>diag</title>
<path fill="#faece7" stroke="#993c1d" stroke-width="1.2" d="M749.4,-509.88C749.4,-509.88 498.6,-509.88 498.6,-509.88 492.6,-509.88 486.6,-503.88 486.6,-497.88 486.6,-497.88 486.6,-446.16 486.6,-446.16 486.6,-440.16 492.6,-434.16 498.6,-434.16 498.6,-434.16 749.4,-434.16 749.4,-434.16 755.4,-434.16 761.4,-440.16 761.4,-446.16 761.4,-446.16 761.4,-497.88 761.4,-497.88 761.4,-503.88 755.4,-509.88 749.4,-509.88"/>
<text xml:space="preserve" text-anchor="middle" x="624" y="-491.02" font-family="monospace" font-size="10.00" fill="#1a1a1a">Diagnostics &#160;&#160;(error reporting &#45;&gt; stderr)</text>
<text xml:space="preserve" text-anchor="middle" x="624" y="-476.77" font-family="monospace" font-size="10.00" fill="#1a1a1a">throw / uncaught &#160;&#160;&#160;&#160;assert &#160;&#160;&#160;&#160;perror</text>
<text xml:space="preserve" text-anchor="middle" x="624" y="-462.52" font-family="monospace" font-size="10.00" fill="#1a1a1a">&lt;err.h&gt;: &#160;err &#160;errx &#160;warn &#160;warnx</text>
<text xml:space="preserve" text-anchor="middle" x="624" y="-448.27" font-family="monospace" font-size="10.00" fill="#1a1a1a">&lt;error.h&gt;: &#160;error &#160;error_at_line</text>
</g>
<!-- diag&#45;&gt;stdio -->
<g id="edge3" class="edge">
<title>diag&#45;&gt;stdio</title>
<path fill="none" stroke="#993c1d" stroke-width="1.2" d="M594.47,-433.77C582.06,-418.11 567.51,-399.75 554.52,-383.36"/>
<polygon fill="#993c1d" stroke="#993c1d" stroke-width="1.2" points="556.96,-381.94 549.8,-377.41 552.57,-385.41 556.96,-381.94"/>
</g>
<!-- stdio&#45;&gt;writef -->
<g id="edge4" class="edge">
<title>stdio&#45;&gt;writef</title>
<path fill="none" stroke="#0f6e56" stroke-width="1.6" d="M438.06,-299.13C401.98,-282.45 359.6,-262.86 323.57,-246.2"/>
<polygon fill="#0f6e56" stroke="#0f6e56" stroke-width="1.6" points="325.19,-243.87 316.75,-243.05 322.84,-248.95 325.19,-243.87"/>
<text xml:space="preserve" text-anchor="middle" x="449.65" y="-268.62" font-family="monospace" font-size="8.50" fill="#0f6e56"> &#160;flush calls write() &#160;</text>
</g>
<!-- otherfd -->
<g id="node4" class="node">
<title>otherfd</title>
<path fill="#e2f0f4" stroke="#1f6f8b" stroke-width="1.2" d="M1024.4,-368.29C1024.4,-368.29 755.6,-368.29 755.6,-368.29 749.6,-368.29 743.6,-362.29 743.6,-356.29 743.6,-356.29 743.6,-318.81 743.6,-318.81 743.6,-312.81 749.6,-306.81 755.6,-306.81 755.6,-306.81 1024.4,-306.81 1024.4,-306.81 1030.4,-306.81 1036.4,-312.81 1036.4,-318.81 1036.4,-318.81 1036.4,-356.29 1036.4,-356.29 1036.4,-362.29 1030.4,-368.29 1024.4,-368.29"/>
<text xml:space="preserve" text-anchor="middle" x="890" y="-349.43" font-family="monospace" font-size="10.00" fill="#1a1a1a">Other fd&#45;based APIs &#160;&#160;(no userspace buffer)</text>
<text xml:space="preserve" text-anchor="middle" x="890" y="-335.18" font-family="monospace" font-size="10.00" fill="#1a1a1a">dprintf &#160;&#160;&#160;aio_write &#160;&#160;&#160;lio_listio</text>
<text xml:space="preserve" text-anchor="middle" x="890" y="-320.93" font-family="monospace" font-size="10.00" fill="#1a1a1a">(aio: helper thread; pwrite ESPIPE &#45;&gt; write)</text>
</g>
<!-- otherfd&#45;&gt;writef -->
<g id="edge5" class="edge">
<title>otherfd&#45;&gt;writef</title>
<path fill="none" stroke="#1f6f8b" stroke-width="1.4" d="M756.35,-306.29C745.75,-304.02 735.21,-301.79 725,-299.69 630.44,-280.23 525.1,-260.21 437.07,-243.95"/>
<polygon fill="#1f6f8b" stroke="#1f6f8b" stroke-width="1.4" points="437.71,-241.22 429.33,-242.52 436.69,-246.72 437.71,-241.22"/>
<text xml:space="preserve" text-anchor="middle" x="650.87" y="-268.62" font-family="monospace" font-size="8.50" fill="#1f6f8b"> &#160;calls write() &#160;</text>
</g>
<!-- write_k -->
<g id="node8" class="node">
<title>write_k</title>
<path fill="#d3d1c7" stroke="#4f4e4a" stroke-width="2" d="M734.4,-89.97C734.4,-89.97 243.6,-89.97 243.6,-89.97 237.6,-89.97 231.6,-83.97 231.6,-77.97 231.6,-77.97 231.6,-36 231.6,-36 231.6,-30 237.6,-24 243.6,-24 243.6,-24 734.4,-24 734.4,-24 740.4,-24 746.4,-30 746.4,-36 746.4,-36 746.4,-77.97 746.4,-77.97 746.4,-83.97 740.4,-89.97 734.4,-89.97"/>
<text xml:space="preserve" text-anchor="middle" x="489" y="-70.16" font-family="monospace" font-size="11.00" fill="#1a1a1a">write(fd, buf, count) &#160;&#160;&#45;&#45; the system call</text>
<text xml:space="preserve" text-anchor="middle" x="489" y="-54.41" font-family="monospace" font-size="11.00" fill="#1a1a1a">nearly every method converges here</text>
<text xml:space="preserve" text-anchor="middle" x="489" y="-38.66" font-family="monospace" font-size="11.00" fill="#1a1a1a">differs only by the target fd &#160;(1 stdout, 2 stderr, file, /dev/tty, ...)</text>
</g>
<!-- writef&#45;&gt;write_k -->
<g id="edge6" class="edge">
<title>writef&#45;&gt;write_k</title>
<path fill="none" stroke="#854f0b" stroke-width="2.4" d="M297.6,-173.89C335.18,-151.14 385.25,-120.81 424.76,-96.89"/>
<polygon fill="#854f0b" stroke="#854f0b" stroke-width="2.4" points="426.06,-99.37 431.45,-92.84 423.16,-94.58 426.06,-99.37"/>
<text xml:space="preserve" text-anchor="middle" x="434.75" y="-140.9" font-family="monospace" font-size="8.50" fill="#854f0b"> &#160;the &#39;syscall&#39; instruction &#160;</text>
</g>
<!-- raw -->
<g id="node6" class="node">
<title>raw</title>
<path fill="#fbe9d6" stroke="#a85a12" stroke-width="1.2" d="M752.4,-231.56C752.4,-231.56 507.6,-231.56 507.6,-231.56 501.6,-231.56 495.6,-225.56 495.6,-219.56 495.6,-219.56 495.6,-196.34 495.6,-196.34 495.6,-190.34 501.6,-184.34 507.6,-184.34 507.6,-184.34 752.4,-184.34 752.4,-184.34 758.4,-184.34 764.4,-190.34 764.4,-196.34 764.4,-196.34 764.4,-219.56 764.4,-219.56 764.4,-225.56 758.4,-231.56 752.4,-231.56"/>
<text xml:space="preserve" text-anchor="middle" x="630" y="-212.7" font-family="monospace" font-size="10.00" fill="#1a1a1a">syscall(SYS_write) &#160;&#160;/ &#160;&#160;inline asm</text>
<text xml:space="preserve" text-anchor="middle" x="630" y="-198.45" font-family="monospace" font-size="10.00" fill="#1a1a1a">skip write(), issue the syscall yourself</text>
</g>
<!-- raw&#45;&gt;write_k -->
<g id="edge7" class="edge">
<title>raw&#45;&gt;write_k</title>
<path fill="none" stroke="#a85a12" stroke-width="1.2" stroke-dasharray="5,2" d="M608.28,-184C586.56,-161.06 552.72,-125.31 526.63,-97.74"/>
<polygon fill="#a85a12" stroke="#a85a12" stroke-width="1.2" points="528.95,-96.12 521.42,-92.24 524.89,-99.97 528.95,-96.12"/>
<text xml:space="preserve" text-anchor="middle" x="664" y="-140.9" font-family="monospace" font-size="8.50" fill="#a85a12"> &#160;same instruction, skips write() &#160;</text>
</g>
<!-- bypass -->
<g id="node7" class="node">
<title>bypass</title>
<path fill="#eae8fd" stroke="#534ab7" stroke-width="1.2" d="M1057.4,-231.56C1057.4,-231.56 812.6,-231.56 812.6,-231.56 806.6,-231.56 800.6,-225.56 800.6,-219.56 800.6,-219.56 800.6,-196.34 800.6,-196.34 800.6,-190.34 806.6,-184.34 812.6,-184.34 812.6,-184.34 1057.4,-184.34 1057.4,-184.34 1063.4,-184.34 1069.4,-190.34 1069.4,-196.34 1069.4,-196.34 1069.4,-219.56 1069.4,-219.56 1069.4,-225.56 1063.4,-231.56 1057.4,-231.56"/>
<text xml:space="preserve" text-anchor="middle" x="935" y="-212.7" font-family="monospace" font-size="10.00" fill="#1a1a1a">Bypass write() &#160;&#160;(its own syscall)</text>
<text xml:space="preserve" text-anchor="middle" x="935" y="-198.45" font-family="monospace" font-size="10.00" fill="#1a1a1a">writev &#160;&#160;&#160;sendfile &#160;&#160;&#160;splice &#160;&#160;&#160;io_uring</text>
</g>
<!-- other4 -->
<g id="node9" class="node">
<title>other4</title>
<path fill="#d7d4e2" stroke="#534ab7" stroke-width="1.2" d="M1075.4,-80.59C1075.4,-80.59 794.6,-80.59 794.6,-80.59 788.6,-80.59 782.6,-74.59 782.6,-68.59 782.6,-68.59 782.6,-45.38 782.6,-45.38 782.6,-39.38 788.6,-33.38 794.6,-33.38 794.6,-33.38 1075.4,-33.38 1075.4,-33.38 1081.4,-33.38 1087.4,-39.38 1087.4,-45.38 1087.4,-45.38 1087.4,-68.59 1087.4,-68.59 1087.4,-74.59 1081.4,-80.59 1075.4,-80.59"/>
<text xml:space="preserve" text-anchor="middle" x="935" y="-61.73" font-family="monospace" font-size="10.00" fill="#1a1a1a">writev &#160;&#160;&#160;sendfile &#160;&#160;&#160;splice &#160;&#160;&#160;io_uring_enter</text>
<text xml:space="preserve" text-anchor="middle" x="935" y="-47.48" font-family="monospace" font-size="10.00" fill="#1a1a1a">the only 4 that bypass write()</text>
</g>
<!-- bypass&#45;&gt;other4 -->
<g id="edge8" class="edge">
<title>bypass&#45;&gt;other4</title>
<path fill="none" stroke="#534ab7" stroke-width="1.2" stroke-dasharray="5,2" d="M935,-184C935,-158.89 935,-118.44 935,-90.17"/>
<polygon fill="#534ab7" stroke="#534ab7" stroke-width="1.2" points="937.8,-90.53 935,-82.53 932.2,-90.53 937.8,-90.53"/>
<text xml:space="preserve" text-anchor="middle" x="977" y="-140.9" font-family="monospace" font-size="8.50" fill="#534ab7"> &#160;own syscalls &#160;</text>
</g>
</g>
</svg>
